<svg fill="none" xmlns="http://www.w3.org/2000/svg">
<path d="M196 268L0 0V268H196Z" fill="#6D11F7"/>
<path d="M88.4 241.8C60.2 241.8 36.4 236.6 17 226.2L32 179.7C52.6 187.1 71 190.8 87.2 190.8C96 190.8 102.4 189.8 106.4 187.8C110.6 185.6 112.7 182.4 112.7 178.2C112.7 175.4 111.6 173 109.4 171C107.2 168.8 102.8 166.4 96.2 163.8C89.6 161.2 79.7 158 66.5 154.2C50.3 149.4 37.7 141.6 28.7 130.8C19.7 119.8 15.2 107.2 15.2 93C15.2 71 22.4 54.4 36.8 43.2C51.4 31.8 71 26.1 95.6 26.1C108.4 26.1 121 27.5 133.4 30.3C145.8 32.9 156.8 36.8 166.4 42L150.2 87.3C139 83.5 129.2 80.8 120.8 79.2C112.6 77.4 104.6 76.5 96.8 76.5C83.6 76.5 77 80.1 77 87.3C77 90.9 79.1 94 83.3 96.6C87.7 99 96.6 102.1 110 105.9C131 111.5 146.9 120.1 157.7 131.7C168.5 143.1 173.9 156.8 173.9 172.8C173.9 195 166.7 212.1 152.3 224.1C137.9 235.9 116.6 241.8 88.4 241.8ZM234.139 76.2H191.239V30.6H346.939V76.2H304.039V237H234.139V76.2ZM475.384 241.8C455.584 241.8 437.884 238 422.284 230.4C406.884 222.8 394.884 212.2 386.284 198.6C377.684 184.8 373.384 169.1 373.384 151.5V30.6H441.184V151.5C441.184 163.5 444.084 172.5 449.884 178.5C455.684 184.5 464.184 187.5 475.384 187.5C486.584 187.5 495.084 184.5 500.884 178.5C506.684 172.3 509.584 163.3 509.584 151.5V30.6H577.384V151.5C577.384 169.1 573.084 184.8 564.484 198.6C555.884 212.2 543.784 222.8 528.184 230.4C512.784 238 495.184 241.8 475.384 241.8ZM678.439 241.8C650.239 241.8 626.439 236.6 607.039 226.2L622.039 179.7C642.639 187.1 661.039 190.8 677.239 190.8C686.039 190.8 692.439 189.8 696.439 187.8C700.639 185.6 702.739 182.4 702.739 178.2C702.739 175.4 701.639 173 699.439 171C697.239 168.8 692.839 166.4 686.239 163.8C679.639 161.2 669.739 158 656.539 154.2C640.339 149.4 627.739 141.6 618.739 130.8C609.739 119.8 605.239 107.2 605.239 93C605.239 71 612.439 54.4 626.839 43.2C641.439 31.8 661.039 26.1 685.639 26.1C698.439 26.1 711.039 27.5 723.439 30.3C735.839 32.9 746.839 36.8 756.439 42L740.239 87.3C729.039 83.5 719.239 80.8 710.839 79.2C702.639 77.4 694.639 76.5 686.839 76.5C673.639 76.5 667.039 80.1 667.039 87.3C667.039 90.9 669.139 94 673.339 96.6C677.739 99 686.639 102.1 700.039 105.9C721.039 111.5 736.939 120.1 747.739 131.7C758.539 143.1 763.939 156.8 763.939 172.8C763.939 195 756.739 212.1 742.339 224.1C727.939 235.9 706.639 241.8 678.439 241.8ZM831.078 30.6H922.278L981.978 237H911.478L903.678 197.4H850.278L841.578 237H774.078L831.078 30.6ZM896.478 160.5L876.978 70.2L856.578 160.5H896.478Z" fill="black"/>
</svg>
