<svg width="1080" height="1080" viewBox="0 0 1080 1080" fill="none" xmlns="http://www.w3.org/2000/svg">
<path d="M1080 1080H0V0L1080 1080Z" fill="#6D11F7"/>
<path d="M525.4 827.8C450.2 827.8 386.733 813.933 335 786.2L375 662.2C429.933 681.933 479 691.8 522.2 691.8C545.667 691.8 562.733 689.133 573.4 683.8C584.6 677.933 590.2 669.4 590.2 658.2C590.2 650.733 587.267 644.333 581.4 639C575.533 633.133 563.8 626.733 546.2 619.8C528.6 612.867 502.2 604.333 467 594.2C423.8 581.4 390.2 560.6 366.2 531.8C342.2 502.467 330.2 468.867 330.2 431C330.2 372.333 349.4 328.067 387.8 298.2C426.733 267.8 479 252.6 544.6 252.6C578.733 252.6 612.333 256.333 645.4 263.8C678.467 270.733 707.8 281.133 733.4 295L690.2 415.8C660.333 405.667 634.2 398.467 611.8 394.2C589.933 389.4 568.6 387 547.8 387C512.6 387 495 396.6 495 415.8C495 425.4 500.6 433.667 511.8 440.6C523.533 447 547.267 455.267 583 465.4C639 480.333 681.4 503.267 710.2 534.2C739 564.6 753.4 601.133 753.4 643.8C753.4 703 734.2 748.6 695.8 780.6C657.4 812.067 600.6 827.8 525.4 827.8Z" fill="black"/>
</svg>
